<svg width="184" height="30" viewBox="0 0 184 30" fill="none" xmlns="http://www.w3.org/2000/svg">
<path d="M48.0853 17.65V27.4923H43.1953V18.3598C43.1953 16.3724 41.9488 15.426 40.3667 15.426C38.5929 15.426 37.3464 16.467 37.3464 18.7383V27.4923H32.4564V11.4513H37.3464V12.9655C38.2094 11.7825 39.8394 11.0254 41.9967 11.0254C45.3047 11.0254 48.0853 13.2967 48.0853 17.65Z" fill="#333333"/>
<path d="M56.2356 15.8517V21.53C56.2356 22.9022 57.4342 23.0442 59.5915 22.9022V27.2555C53.2153 27.918 51.3456 26.0252 51.3456 21.53V15.8517H48.7567V11.2145H51.3456V8.18612L56.2356 6.71924V11.2145H59.5915V15.8517H56.2356Z" fill="#333333"/>
<path d="M76.6107 17.6499V27.4922H71.7206V18.3597C71.7206 16.3723 70.4741 15.426 68.8921 15.426C67.1182 15.426 65.8717 16.467 65.8717 18.7383V27.4922H60.9817V5.01587H65.8717V12.9654C66.7347 11.7824 68.3647 11.0253 70.5221 11.0253C73.83 11.0253 76.6107 13.2966 76.6107 17.6499Z" fill="#333333"/>
<path d="M93.9657 11.4512V27.4922H89.0757V25.978C88.2127 27.161 86.5827 27.9181 84.4253 27.9181C81.1653 27.9181 78.3367 25.5994 78.3367 21.2934V11.4512H83.2268V20.5837C83.2268 22.571 84.4733 23.5174 86.0553 23.5174C87.8292 23.5174 89.0757 22.4764 89.0757 20.2051V11.4512H93.9657Z" fill="#333333"/>
<path d="M110.026 7.14522C110.026 5.58371 111.368 4.25879 112.95 4.25879C114.532 4.25879 115.875 5.58371 115.875 7.14522C115.875 8.70674 114.532 10.0317 112.95 10.0317C111.368 10.0317 110.026 8.70674 110.026 7.14522ZM110.505 11.4512H115.395V27.4922H110.505V11.4512Z" fill="#6300DF"/>
<path d="M134.284 11.4512V27.4922H129.394V25.978C128.34 27.2083 126.71 27.9181 124.552 27.9181C120.285 27.9181 116.786 24.2272 116.786 19.4481C116.786 14.6689 120.285 10.978 124.552 10.978C126.71 10.978 128.34 11.7351 129.394 12.9181V11.4039H134.284V11.4512ZM129.394 19.4954C129.394 17.0821 127.764 15.5679 125.511 15.5679C123.258 15.5679 121.628 17.0821 121.628 19.4954C121.628 21.9086 123.258 23.4228 125.511 23.4228C127.764 23.3755 129.394 21.9086 129.394 19.4954Z" fill="#6300DF"/>
<path d="M149.146 22.4765C149.146 26.1674 145.886 27.7289 142.386 27.7289C139.126 27.7289 136.681 26.4986 135.387 23.8961L139.606 21.5301C140.037 22.7604 140.948 23.4229 142.386 23.4229C143.537 23.4229 144.16 23.0917 144.16 22.4292C144.16 20.6784 136.154 21.5775 136.154 16.0412C136.154 12.5396 139.126 10.7888 142.53 10.7888C145.167 10.7888 147.516 11.9245 148.859 14.2431L144.688 16.4671C144.208 15.6153 143.585 15.0475 142.53 15.0475C141.667 15.0475 141.188 15.3787 141.188 15.9465C141.14 17.7447 149.146 16.5617 149.146 22.4765Z" fill="#6300DF"/>
<path d="M157.009 16.0883V21.7665C157.009 23.1388 158.207 23.2807 160.365 23.1388V27.4921C153.988 28.1545 152.119 26.2618 152.119 21.7665V16.0883H149.53V11.4511H152.119V8.42269L157.009 6.95581V11.4511H160.365V16.0883H157.009Z" fill="#6300DF"/>
<path d="M161.276 7.14522C161.276 5.58371 162.618 4.25879 164.2 4.25879C165.782 4.25879 167.125 5.58371 167.125 7.14522C167.125 8.70674 165.782 10.0317 164.2 10.0317C162.618 10.0317 161.276 8.70674 161.276 7.14522ZM161.755 11.4512H166.645V27.4922H161.755V11.4512Z" fill="#6300DF"/>
<path d="M168.035 19.4954C168.035 14.7162 171.727 11.0254 176.665 11.0254C179.829 11.0254 182.61 12.6815 184 15.1421L179.733 17.6027C179.158 16.467 178.007 15.8046 176.569 15.8046C174.46 15.8046 172.878 17.3188 172.878 19.5427C172.878 21.7667 174.46 23.2809 176.569 23.2809C178.007 23.2809 179.206 22.6185 179.733 21.4828L184 23.8961C182.61 26.4039 179.829 28.0128 176.665 28.0128C171.727 27.9655 168.035 24.2746 168.035 19.4954Z" fill="#6300DF"/>
<path d="M102.691 22.9969L105.136 19.6846L108.827 14.6688V11.4512H96.4585V15.9464H102.259L100.438 18.4543L100.102 18.9275L96.1229 24.3218V27.5395H109.115V23.0442H102.691V22.9969Z" fill="#6300DF"/>
<path d="M102.307 15.9464H96.4586V11.4512H105.663" fill="#FF1472"/>
<path d="M20.7586 3.07577C20.5669 4.40069 19.3683 5.34706 18.026 5.15779C16.6836 4.96851 15.7248 3.78555 15.8686 2.46063C16.0124 1.13571 17.2589 0.189335 18.6013 0.378609C19.9916 0.520565 20.9025 1.75085 20.7586 3.07577Z" fill="#6300DF"/>
<path d="M23.1562 25.3155L27.1353 22.2871L30.4913 19.7792C30.5392 19.7792 30.5392 19.7319 30.5871 19.7319C31.6898 18.9275 31.7857 17.4133 30.9707 16.325C30.4913 15.7098 29.8201 15.3786 29.1009 15.3786C28.5736 15.3786 27.9983 15.5206 27.5189 15.8991C27.375 16.0411 27.2312 16.1357 27.0874 16.325L20.5673 21.2934L20.5194 21.3408C20.1838 21.5773 18.7935 22.4764 17.8826 22.571C17.2114 22.713 16.4923 22.7603 15.7732 22.6657C15.054 22.571 14.3349 22.3344 13.7596 22.0032L22.2932 15.5206L26.3683 12.3975C26.3683 12.3975 26.3683 12.3975 26.3683 12.3502C25.6971 10.8833 24.6903 9.60574 23.4438 8.61205C21.9097 7.38177 20.04 6.53003 17.9785 6.29344C15.8691 6.00953 13.8555 6.38807 12.0817 7.19249C10.5955 7.85495 9.30105 8.84864 8.24634 10.1262C6.99985 11.6404 6.1369 13.4859 5.84925 15.5679C5.5616 17.6026 5.94514 19.59 6.7122 21.3408L5.75337 21.9559L1.00715 25.6941L0.959207 25.7414C0.47979 26.1199 0.144199 26.6878 0.0483156 27.3029C-0.0955093 28.5805 0.815382 29.7635 2.10981 29.9527C2.78099 30.0474 3.40423 29.8581 3.88365 29.4796L9.5887 25.1736C10.5955 25.978 11.6981 26.6404 12.9926 27.0663C13.6637 27.3029 14.3829 27.4449 15.102 27.5395C17.2114 27.8234 19.225 27.4449 20.9988 26.6404C21.6221 26.3565 22.2453 26.0253 22.8206 25.5994C22.8685 25.5994 22.9165 25.5521 22.9644 25.5048L23.1562 25.3155ZM10.5955 16.183C10.6914 15.4732 10.9311 14.7635 11.2667 14.1956C12.0337 12.7288 13.472 11.6404 15.102 11.2619C15.7732 11.0726 16.4923 11.0253 17.2114 11.1199C17.9305 11.2146 18.6497 11.4512 19.225 11.7824L10.7393 18.265C10.5475 17.6026 10.4996 16.8928 10.5955 16.183ZM3.35629 29.6688L3.30835 29.7161L3.35629 29.6688Z" fill="#FF1472"/>
<path d="M32.7442 7.42916L27.2309 11.6878C26.5118 10.2683 25.505 8.94336 24.2585 7.90235L29.628 3.83295C29.7239 3.78563 29.7718 3.73831 29.8677 3.69099C30.2992 3.40708 30.8266 3.31245 31.4019 3.35976C32.7442 3.54904 33.6551 4.732 33.4633 6.00961C33.3675 6.62475 33.1278 7.09793 32.7442 7.42916Z" fill="#FFBF00"/>
<path d="M10.7388 6.62468C9.30056 7.38177 8.05408 8.4701 7.0473 9.74771L2.49285 3.83288C2.39697 3.73824 2.34902 3.6436 2.30108 3.59629C2.06137 3.1231 1.91755 2.60259 2.01343 2.08209C2.15726 0.757169 3.3558 -0.141885 4.69816 7.08904e-05C5.27346 0.0473895 5.75288 0.331301 6.08847 0.70985L6.13641 0.662531L10.7388 6.62468Z" fill="#23A8E2"/>
</svg>
